<svg width="512" height="512" xmlns="http://www.w3.org/2000/svg"><path fill="none" d="M-1-1h514v514H-1z"/><path fill="#fff" stroke="#000" fill-rule="evenodd" clip-rule="evenodd" d="M408.727 70.191v93.896h15.621V70.191h-15.621zm-289.31 30.461h197.831a30.505 30.505 0 012.109-2.354c1.053-1.085 2.229-2.045 3.439-2.913h0l.245-.154h0l.685-.465h0l.246-.155h0l.498-.31h0l.463-.279h0l.495-.279h0l.249-.123v-.031l.249-.125h0l.277-.123h0l.249-.123h0l.246-.125h0l.249-.124h0l.277-.124h0l.249-.124h0l.281-.093h0l.245-.124h0l.28-.093h0l.246-.124h0l.281-.093h0l.277-.094h0l.248-.092v-.031l.277-.063v-.031l.281-.062v-.03l.277-.063h0l.281-.094h0l.276-.093h0l.281-.062h0l.276-.093h0l.281-.062.277-.063h0l.281-.094h0l.277-.061h0l.28-.063.277-.063h0l.309-.031v-.03l.28-.03h0l.277-.063h0l.313-.031h0l.277-.063h0l.309-.03h0l.281-.032h0l.309-.03h0l.281-.03h0l10.223-25.629c.063-.154.158-.34.25-.495l.031-.063c-12.49-11.403-26.929-20.731-42.795-27.3-17.292-7.19-36.257-11.125-56.152-11.125-40.471 0-77.1 16.393-103.628 42.919a147.553 147.553 0 00-24.101 31.735zm134.769 69.602c19.274 0 36.724 7.809 49.364 20.483 12.646 12.612 20.485 30.06 20.485 49.366 0 19.274-7.84 36.752-20.485 49.396-12.609 12.644-30.09 20.452-49.364 20.452-19.306 0-36.751-7.84-49.396-20.452-12.642-12.644-20.454-30.121-20.454-49.396 0-19.275 7.812-36.754 20.454-49.396 12.644-12.644 30.09-20.453 49.396-20.453zm58.878-61.978H115.42c-9.482 19.399-14.813 41.215-14.813 64.239 0 20.732 4.306 40.44 12.023 58.259 8.026 18.501 19.801 35.079 34.365 48.715a3.896 3.896 0 011.179 2.913l.867 143.168 163.869 28.045v-95.291c0-2.075 1.705-3.811 3.811-3.811l.527.061c32.354 1.984 50.975 2.604 60.738-6.477 9.946-9.265 12.273-29.563 12.242-69.631 0-1.735 1.207-3.223 2.817-3.656a81.595 81.595 0 0014.102-5.33c3.997-1.953 8.117-4.369 12.301-7.314l-28.199-59.064c-.372-.773-.432-1.642-.277-2.447l6.384-28.975h-48.407l-.092-.031h-.155l-.063-.031h-.096 0l-.059-.031h-.063l-.091-.031-.063-.03h-.091l-.064-.03-.063-.031-.092-.031-.063-.031-.063-.031h0l-.091-.031-.063-.03-.06-.031h0l-.063-.03h0l-.063-.031-.059-.063-.063-.03-.063-.032h-.031l-.061-.03h0l-.063-.063h0l-.063-.03-.028-.063h-.031l-.031-.031h-.031l-.032-.063-.06-.029h0l-.063-.063-.064-.031h0l-.031-.062h-.027l-.032-.062h0l-.063-.063-.059-.031h0l-.032-.063-.063-.061-.031-.063h-.031l-.028-.063-.032-.062-.063-.063-.031-.062-.061-.063-.031-.063h0l-.031-.061h0l-.063-.063-.031-.063-.028-.061-.031-.063-.031-.094h0l-.032-.063h0l-.032-.061h0l-.031-.063-.027-.094-.032-.061-.031-.063v-.094l-.032-.062-10.1-25.287h0l-.281-.03h-.031l-.277-.031h0l-.281-.031h-.031l-.277-.031h0l-.277-.062h0l-.28-.03h-.032l-.277-.063h0l-.28-.063h0l-.277-.031h-.031l-.277-.061h0l-.28-.063h0l-.277-.063v-.031l-.281-.061h0l-.277-.063h-.031l-.25-.063h-.031l-.245-.094h-.032l-.249-.061h-.031l-.245-.094h0l-.281-.092h0l-.277-.094h0l-.281-.093h0l-.245-.093h-.032l-.248-.094-.277-.093h0l-1.053-.433h-.032l-.498-.219h0c-1.485-.682-2.882-1.456-4.184-2.385h0a24.874 24.874 0 01-3.685-3.068l-.158-.186-.028-.031-.031-.031-.218-.187v-.03l-.218-.217h0l-.218-.248h0l-.214-.217v-.031l-.403-.465h0l-.218-.248h0l-.187-.248h0l-.186-.248h-.031l-.186-.247h0l-.187-.249h0l-.372-.495-.031-.03-.154-.217-.032-.063-.154-.217-.032-.031-.122-.217-.032-.063-.154-.217-.031-.062-.123-.187-.063-.063-.123-.216-.031-.063-.123-.217-.031-.062-.123-.217-.032-.063-.122-.187-.064-.092-.094-.187-.061-.093-.094-.187-.061-.092-.094-.217-.032-.094-.091-.186-.063-.094-.091-.186-.063-.093-.063-.187-.06-.123-.095-.156-.06-.123-.063-.186-.063-.124-.061-.155-.063-.124-.063-.187-.06-.124-.063-.154-.064-.155-.059-.154-.063-.155-.063-.124-.031-.155-.06-.154-.063-.155-.063-.155-.029-.154-.063-.155-.063-.154-.028-.156-.063-.186-.031-.093-.063-.217-.028-.093-.063-.217-.032-.094-.063-.217-.027-.124-.063-.187v-.123l-.063-.217-.031-.093-.06-.217v-.093l-.063-.218-.031-.093-.031-.248-.029-.093-.031-.217-.031-.093-.031-.248-.032-.063-.031-.248v-.092l-.06-.249v-.062l-.031-.279-.032-.063-.031-.278v-.03l-.032-.279v-.062l-.027-.278v-.063l-.031-.279v-.031l-.032-.31v-.031l-.032-.31v-.031l-.031-.31h0v-.341h0v-.341h0l-.031-.341h0v-.682h0l.031-.342v-.682l.031-.34h0l.032-.342h0l.032-.341h0l.031-.341h0l.027-.341.032-.31v-.031l.063-.311h0l.031-.34h0l.06-.311v-.031l.063-.31h0l.063-.341h0l.061-.311h0l.063-.34h0l.063-.311h0l.091-.31v-.03l.063-.311h0l.091-.31h0l.096-.311v-.03l.091-.279v-.031l.095-.309h0l.091-.311h0l.126-.311h0l.073-.278h0zm-24.015 155.193c-2.79 4.709 3.997 8.149 6.353 4.245 1.551-2.263 2.85-4.711 3.997-7.19 2.015-5.082-5.236-7.406-6.942-3.16-.99 2.138-2.047 4.152-3.408 6.105zm-21.847 16.548c-5.208 2.106-1.737 8.893 2.387 7.251 2.572-.807 5.204-1.983 7.591-3.223 4.741-2.82.309-9.049-3.563-6.725-1.986 1.054-4.277 2.045-6.415 2.697zm-54.759-44.501c.372-1.92-1.393-3.78-3.036-4.121-2.541-.402-4.092 1.146-4.555 3.347-.218 2.852-.34 5.362-.186 8.243 0 4.432 7.591 5.113 7.591-.465-.154-2.387.001-4.649.186-7.004zm11.684-24.76c1.456-1.426 1.456-3.873.031-5.299-1.551-1.549-3.934-1.549-5.454-.031a52.088 52.088 0 00-5.268 6.385c-2.667 4.462 3.316 8.273 6.257 4.307 1.272-1.86 2.854-3.72 4.434-5.362zm74.064-14.658c-11.252-11.279-26.838-18.221-44.006-18.221-17.196 0-32.754 6.973-44.002 18.221-11.251 11.25-18.222 26.837-18.222 44.006 0 17.167 6.97 32.723 18.222 44.003 11.248 11.249 26.806 18.222 44.002 18.222 17.168 0 32.726-6.973 44.006-18.222 11.248-11.249 18.221-26.836 18.221-44.003 0-17.169-6.973-32.756-18.221-44.006zm-10.879 195.694c2.046.403 3.38 2.417 2.977 4.462-.404 2.047-2.419 3.379-4.461 2.976L179.286 377.6c-2.074-.402-3.408-2.417-2.972-4.462.4-2.046 2.383-3.378 4.46-2.976l106.538 21.63zm0 24.048c2.046.434 3.38 2.418 2.977 4.463-.404 2.075-2.419 3.408-4.461 2.974l-106.542-21.599c-2.074-.434-3.408-2.418-2.972-4.463a3.74 3.74 0 014.46-2.974l106.538 21.599zm106.85 62.535a3.808 3.808 0 013.811 3.812 3.808 3.808 0 01-3.811 3.813H183.224a3.809 3.809 0 01-3.812-3.813 3.809 3.809 0 013.812-3.812h210.938zm-123.52-15.742c2.105 0 3.812 1.704 3.812 3.812s-1.706 3.812-3.812 3.812H124.653c-2.078 0-3.811-1.704-3.811-3.812s1.733-3.812 3.811-3.812h145.989zm-160.925 0c2.106 0 3.812 1.704 3.812 3.812s-1.706 3.812-3.812 3.812H91.464c-2.105 0-3.811-1.704-3.811-3.812s1.706-3.812 3.811-3.812h18.253zm292.752.496a3.81 3.81 0 013.812 3.812c0 2.075-1.706 3.812-3.812 3.812h-69.168c-2.106 0-3.813-1.736-3.813-3.812a3.81 3.81 0 013.813-3.812h69.168zm-1.365-392.938h-49.178l-10.041 25.163h-.031v.062h0l-.032.093h0l-.028.063h0l-.031.062h0v.093h-.031v.062h-.032v.063h-.031l-.032.063h0l-.027.062v.03l-.031.063h0l-.032.063h0l-.031.062h0l-.032.063h0l-.059.062h0l-.032.063h0l-.032.063h0l-.063.061h0l-.031.063h0l-.061.063h0l-.031.061h0l-.063.063h0l-.032.063h0l-.06.031v.03l-.063.032h0l-.032.061h0l-.06.063h0l-.063.031v.031l-.063.031h0l-.031.062h-.027l-.032.03h0l-.063.063h0l-.059.031h0l-.064.062h0l-.063.031h0l-.06.03v.031l-.063.031h0l-.063.031h0l-.061.03v.032l-.063.03h0l-.063.03h-.031l-.06.032h0l-.063.03h0l-.063.031h0l-.06.031h0l-.095.031h0l-.06.03h0l-.063.032h0l-.063.029h-.031l-.061.031h0-.063 0l-.092.031h0l-.063.031h0-.096 0l-.059.031h0-.095l-.06.03h0-.154v.031h-.158 0-.092 0-.063 0-.091l-.095.03h-.464 0-.249 0-.245 0l-.25.031h0-.248 0l-.219.031h-.027l-.218.031h0-.249v.031h-.246 0l-.217.031h0l-.25.03v.03l-.249.032h0l-.214.03h0l-.249.031v.031l-.218.031h0l-.246.03v.032l-.217.03h0l-.25.062h0l-.217.063h0l-.218.063h0l-.246.061h0l-.218.063h0l-.217.063h0l-.218.061h0l-.214.094h0l-.25.063h0l-.217.093h0l-.218.062h0l-.214.094h0l-.218.092h0l-.218.094h0l-.186.092h-.032l-.187.094h0l-.217.093h0l-.218.093h0l-.214.094v.031l-.186.093h0l-.219.093h0l-.186.124h0l-.217.093h0l-.187.124h0l-.218.124h0l-.186.125h0l-.187.092h0l-.214.124h0l-.186.124-.187.123v.032l-.187.124h0l-.186.123h0l-.186.125h0l-.187.154h0l-.187.123-.186.156h0l-.186.123-.154.156h0l-.187.154h0l-.187.124h0l-.157.154-.187.155-.154.155-.154.155-.186.154-.154.187-.154.154-.143.151h0l-.155.154h0l-.157.186-.154.156h0l-.155.186h0l-.154.155h0l-.154.185-.123.187h0l-.157.155-.123.186h0l-.154.187-.123.187-.127.186h0l-.154.186-.123.186h0l-.126.186v.032l-.122.187-.123.186-.123.186h0l-.127.217h0l-.091.186h0l-.126.187-.123.217-.092.217-.313.589v.031l-.091.186-.126.217h0l-.187.434h0l-.06.217h0l-.095.218h0l-.091.217-.096.217h0l-.213.651h0l-.127.434v.031l-.092.217h0l-.063.217h0l-.092.465h0l-.126.465h0l-.031.217h0l-.06.247-.031.218-.064.248h0l-.031.216-.027.249h0l-.032.248h0l-.031.217h0l-.032.247v.249h0l-.031.246-.031.249v.465l-.028.247v.744h0v.248h0l.028.217v.527l.031.186v.248l.031.031v.248l.032.186v.063l.031.186v.03l.032.187v.063l.027.186v.063l.031.154v.063l.032.186.032.062.031.155v.063l.031.186.028.062.031.155v.062l.032.155.031.094.031.154.031.062.029.155v.094l.063.123v.094l.063.123v.094l.061.124.031.092.031.155.032.094.031.123.032.094.027.124.031.093.063.124.032.093.031.124.027.093.064.123.031.094.031.093.06.124.032.093.031.124.063.094.028.123.063.094.123.34.031.063.218.435.063.124.031.061.092.219.094.123.028.063.063.154.031.063.092.123.031.063.186.341.032.062.095.156.027.03.096.154v.032l.123.154v.031l.122.154v.031l.126.187h0l.123.185h0l.123.187h.031l.096.187h.031l.123.186h0l.154.186.123.156h0l.126.186h0l.154.186h0l.432.496v.031l.313.309v.032l.309.278.187.186c1.302 1.303 2.758 2.418 4.4 3.285h0c.404.217.804.434 1.238.62h0l.622.278h0l.432.155v.03l.218.063h0l.681.217v.031l.435.124h0c.464.124.898.247 1.365.341h0l.246.063h0l.218.03h0l.249.062h0l.214.031h0l.249.031h0l.25.031v.031h.217v.031h.246l.249.03h0l.218.03h.027l.219.032h.248l.495.03h.713l.095.031h.341l.063.031h.154l.06.031h.063l.063.03h.09l.063.03h.06v.032h.063l.063.03h0l.061.031h.093l.063.031h0l.06.031h0l.063.03h0l.063.031h0l.059.03h0l.064.031h0l.063.031h0l.06.031h0l.063.031h0l.063.031h0l.061.03h0l.063.03h0l.031.063h.032l.028.031h0l.063.031h0l.063.031v.03l.06.032h0l.063.03h0l.031.062h0l.06.031h0l.063.062h0l.031.032h.032l.031.061h0l.06.031v.031l.032.031h0l.063.062h0l.031.03h0l.061.063h0l.031.063h0l.063.062h0l.032.063h0l.028.03h.031l.031.063h0l.031.062h0l.064.063h0l.027.062h0l.031.063h0l.032.063h0l.031.062h0l.032.062h0l.031.063v.03l.027.063h0l.032.063h.031v.062h.032v.063h0l10.195 25.503h49.178V70.191h.012z"/></svg>