<svg height="448pt" viewBox="0 0 448 448.013" width="448pt" xmlns="http://www.w3.org/2000/svg"><path d="M317.36 382.488l5.343-3.199 31.383 31.383 56.61-56.61-31.387-31.382 3.203-5.344a182.392 182.392 0 0019.687-47.36l1.535-5.976h44.274v-80h-44.274l-1.55-5.992a182.201 182.201 0 00-19.688-47.36l-3.203-5.343 31.387-31.383-56.594-56.61-31.383 31.383-5.344-3.199A182.122 182.122 0 00270 45.81l-5.992-1.536V0h-80v44.273l-5.992 1.551a182.067 182.067 0 00-47.36 19.688l-5.347 3.199-31.383-31.399-56.606 56.61 31.383 31.383-3.2 5.343a181.932 181.932 0 00-19.687 47.36L44.277 184H.007v80h44.27l1.555 5.992a182.257 182.257 0 0019.688 47.36l3.199 5.343-31.399 31.383 56.606 56.61 31.383-31.383 5.347 3.199a181.584 181.584 0 0037.352 16.695V368h16v-8.23a7.84 7.84 0 00-5.16-7.426c-54.399-19.235-90.79-70.645-90.84-128.344 0-37.18 15.222-72.738 42.12-98.402a136.004 136.004 0 01100.278-37.446c69.969 3.676 125.848 59.625 129.442 129.602 2.984 59.976-33.891 114.754-90.586 134.558a7.905 7.905 0 00-5.254 7.458V368h16v31.2a181.525 181.525 0 0037.351-16.712zM416.007 216h16v16h-16zm-384 16h-16v-16h16zm61.887 133.426l-11.313 11.308-11.312-11.308 11.312-11.313zM82.582 93.886L71.27 82.575l11.312-11.308 11.313 11.308zM232.008 32h-16V16h16zm122.11 50.574l11.312-11.308 11.312 11.308-11.312 11.313zm11.312 271.54l11.312 11.312-11.312 11.308-11.313-11.308zm0 0"/><path d="M264.008 384h-80v32h80zm-56 24h-16v-16h16zm24 0h-16v-16h16zm24 0h-16v-16h16zm24-192v-8h-8c-22.082.027-39.977 17.918-40 40v8h8c22.078-.027 39.972-17.918 40-40zm-78.633 216a23.998 23.998 0 0022.633 16.012A23.989 23.989 0 00246.637 432zm-25.367-224h-8v8c.023 22.082 17.918 39.973 40 40h8v-8c-.028-22.082-17.922-39.973-40-40zm0 0"/><path d="M343.879 218.496c-3.137-61.758-52.442-111.152-114.192-114.398A119.992 119.992 0 00104.007 224c.052 50.914 32.157 96.281 80.161 113.258a23.857 23.857 0 0115.84 22.512V368h16v-96h-8c-30.914-.035-55.965-25.086-56-56v-24h24a56.002 56.002 0 0148 27.305 55.997 55.997 0 0148-27.305h24v24c-.035 30.914-25.09 55.965-56 56h-8v96h16v-8.23a23.943 23.943 0 0115.926-22.547c50.027-17.47 82.574-65.801 79.945-118.727zm0 0"/></svg>