<svg width="512" height="512" xmlns="http://www.w3.org/2000/svg">

 <g>
  <title>background</title>
  <rect fill="none" id="canvas_background" height="514" width="514" y="-1" x="-1"/>
 </g>
 <g>
  <title>Layer 1</title>
  <path fill="#ffffff" stroke="#000000" id="svg_2" fill-rule="evenodd" clip-rule="evenodd" d="m408.727,70.191l0,93.896l15.621,0l0,-93.896l-15.621,0zm-289.31,30.461l197.831,0c0.652,-0.805 1.365,-1.61 2.109,-2.354c1.053,-1.085 2.229,-2.045 3.439,-2.913l0,0l0.245,-0.154l0,0l0.685,-0.465l0,0l0.246,-0.155l0,0l0.498,-0.31l0,0l0.463,-0.279l0,0l0.495,-0.279l0,0l0.249,-0.123l0,-0.031l0.249,-0.125l0,0l0.277,-0.123l0,0l0.249,-0.123l0,0l0.246,-0.125l0,0l0.249,-0.124l0,0l0.277,-0.124l0,0l0.249,-0.124l0,0l0.281,-0.093l0,0l0.245,-0.124l0,0l0.28,-0.093l0,0l0.246,-0.124l0,0l0.281,-0.093l0,0l0.277,-0.094l0,0l0.248,-0.092l0,-0.031l0.277,-0.063l0,-0.031l0.281,-0.062l0,-0.03l0.277,-0.063l0,0l0.281,-0.094l0,0l0.276,-0.093l0,0l0.281,-0.062l0,0l0.276,-0.093l0,0l0.281,-0.062l0.277,-0.063l0,0l0.281,-0.094l0,0l0.277,-0.061l0,0l0.28,-0.063l0.277,-0.063l0,0l0.309,-0.031l0,-0.03l0.28,-0.03l0,0l0.277,-0.063l0,0l0.313,-0.031l0,0l0.277,-0.063l0,0l0.309,-0.03l0,0l0.281,-0.032l0,0l0.309,-0.03l0,0l0.281,-0.03l0,0l10.223,-25.629c0.063,-0.154 0.158,-0.34 0.25,-0.495l0.031,-0.063c-12.49,-11.403 -26.929,-20.731 -42.795,-27.3c-17.292,-7.19 -36.257,-11.125 -56.152,-11.125c-40.471,0 -77.1,16.393 -103.628,42.919c-9.382,9.394 -17.531,20.085 -24.101,31.735zm134.769,69.602c19.274,0 36.724,7.809 49.364,20.483c12.646,12.612 20.485,30.06 20.485,49.366c0,19.274 -7.84,36.752 -20.485,49.396c-12.609,12.644 -30.09,20.452 -49.364,20.452c-19.306,0 -36.751,-7.84 -49.396,-20.452c-12.642,-12.644 -20.454,-30.121 -20.454,-49.396c0,-19.275 7.812,-36.754 20.454,-49.396c12.644,-12.644 30.09,-20.453 49.396,-20.453zm58.878,-61.978l-197.644,0c-9.482,19.399 -14.813,41.215 -14.813,64.239c0,20.732 4.306,40.44 12.023,58.259c8.026,18.501 19.801,35.079 34.365,48.715c0.807,0.774 1.21,1.858 1.179,2.913l0.867,143.168l163.869,28.045l0,-95.291c0,-2.075 1.705,-3.811 3.811,-3.811l0.527,0.061c32.354,1.984 50.975,2.604 60.738,-6.477c9.946,-9.265 12.273,-29.563 12.242,-69.631c0,-1.735 1.207,-3.223 2.817,-3.656c4.618,-1.271 9.328,-3.006 14.102,-5.33c3.997,-1.953 8.117,-4.369 12.301,-7.314l-28.199,-59.064c-0.372,-0.773 -0.432,-1.642 -0.277,-2.447l6.384,-28.975l-48.003,0l-0.091,0l-0.063,0l-0.095,0l-0.06,0l-0.095,0l-0.092,-0.031l-0.063,0l-0.092,0l-0.063,-0.031l-0.096,0l0,0l-0.059,-0.031l-0.063,0l-0.091,-0.031l-0.063,-0.03l-0.091,0l-0.064,-0.03l-0.063,-0.031l-0.092,-0.031l-0.063,-0.031l-0.063,-0.031l0,0l-0.091,-0.031l-0.063,-0.03l-0.06,-0.031l0,0l-0.063,-0.03l0,0l-0.063,-0.031l-0.059,-0.063l-0.063,-0.03l-0.063,-0.032l-0.031,0l-0.061,-0.03l0,0l-0.063,-0.063l0,0l-0.063,-0.03l-0.028,-0.063l-0.031,0l-0.031,-0.031l-0.031,0l-0.032,-0.063l-0.06,-0.029l0,0l-0.063,-0.063l-0.064,-0.031l0,0l-0.031,-0.062l-0.027,0l-0.032,-0.062l0,0l-0.063,-0.063l-0.059,-0.031l0,0l-0.032,-0.063l-0.063,-0.061l-0.031,-0.063l-0.031,0l-0.028,-0.063l-0.032,-0.062l-0.063,-0.063l-0.031,-0.062l-0.061,-0.063l-0.031,-0.063l0,0l-0.031,-0.061l0,0l-0.063,-0.063l-0.031,-0.063l-0.028,-0.061l-0.031,-0.063l-0.031,-0.094l0,0l-0.032,-0.063l0,0l-0.032,-0.061l0,0l-0.031,-0.063l-0.027,-0.094l-0.032,-0.061l-0.031,-0.063l0,-0.094l-0.032,-0.062l-10.1,-25.287l0,0l-0.281,-0.03l-0.031,0l-0.277,-0.031l0,0l-0.281,-0.031l-0.031,0l-0.277,-0.031l0,0l-0.277,-0.062l0,0l-0.28,-0.03l-0.032,0l-0.277,-0.063l0,0l-0.28,-0.063l0,0l-0.277,-0.031l-0.031,0l-0.277,-0.061l0,0l-0.28,-0.063l0,0l-0.277,-0.063l0,-0.031l-0.281,-0.061l0,0l-0.277,-0.063l-0.031,0l-0.25,-0.063l-0.031,0l-0.245,-0.094l-0.032,0l-0.249,-0.061l-0.031,0l-0.245,-0.094l0,0l-0.281,-0.092l0,0l-0.277,-0.094l0,0l-0.281,-0.093l0,0l-0.245,-0.093l-0.032,0l-0.248,-0.094l-0.277,-0.093l0,0l-1.053,-0.433l-0.032,0l-0.498,-0.219l0,0c-1.485,-0.682 -2.882,-1.456 -4.184,-2.385l0,0c-1.33,-0.899 -2.541,-1.922 -3.685,-3.068l-0.158,-0.186l-0.028,-0.031l-0.031,-0.031l-0.218,-0.187l0,-0.03l-0.218,-0.217l0,0l-0.218,-0.248l0,0l-0.214,-0.217l0,-0.031l-0.403,-0.465l0,0l-0.218,-0.248l0,0l-0.187,-0.248l0,0l-0.186,-0.248l-0.031,0l-0.186,-0.247l0,0l-0.187,-0.249l0,0l-0.372,-0.495l-0.031,-0.03l-0.154,-0.217l-0.032,-0.063l-0.154,-0.217l-0.032,-0.031l-0.122,-0.217l-0.032,-0.063l-0.154,-0.217l-0.031,-0.062l-0.123,-0.187l-0.063,-0.063l-0.123,-0.216l-0.031,-0.063l-0.123,-0.217l-0.031,-0.062l-0.123,-0.217l-0.032,-0.063l-0.122,-0.187l-0.064,-0.092l-0.094,-0.187l-0.061,-0.093l-0.094,-0.187l-0.061,-0.092l-0.094,-0.217l-0.032,-0.094l-0.091,-0.186l-0.063,-0.094l-0.091,-0.186l-0.063,-0.093l-0.063,-0.187l-0.06,-0.123l-0.095,-0.156l-0.06,-0.123l-0.063,-0.186l-0.063,-0.124l-0.061,-0.155l-0.063,-0.124l-0.063,-0.187l-0.06,-0.124l-0.063,-0.154l-0.064,-0.155l-0.059,-0.154l-0.063,-0.155l-0.063,-0.124l-0.031,-0.155l-0.06,-0.154l-0.063,-0.155l-0.063,-0.155l-0.029,-0.154l-0.063,-0.155l-0.063,-0.154l-0.028,-0.156l-0.063,-0.186l-0.031,-0.093l-0.063,-0.217l-0.028,-0.093l-0.063,-0.217l-0.032,-0.094l-0.063,-0.217l-0.027,-0.124l-0.063,-0.187l0,-0.123l-0.063,-0.217l-0.031,-0.093l-0.06,-0.217l0,-0.093l-0.063,-0.218l-0.031,-0.093l-0.031,-0.248l-0.029,-0.093l-0.031,-0.217l-0.031,-0.093l-0.031,-0.248l-0.032,-0.063l-0.031,-0.248l0,-0.092l-0.06,-0.249l0,-0.062l-0.031,-0.279l-0.032,-0.063l-0.031,-0.278l0,-0.03l-0.032,-0.279l0,-0.062l-0.027,-0.278l0,-0.063l-0.031,-0.279l0,-0.031l-0.032,-0.31l0,-0.031l-0.032,-0.31l0,-0.031l-0.031,-0.31l0,0l0,-0.341l0,0l0,-0.341l0,0l-0.031,-0.341l0,0l0,-0.342l0,-0.34l0,0l0.031,-0.342l0,-0.34l0,-0.342l0.031,-0.34l0,0l0.032,-0.342l0,0l0.032,-0.341l0,0l0.031,-0.341l0,0l0.027,-0.341l0.032,-0.31l0,-0.031l0.063,-0.311l0,0l0.031,-0.34l0,0l0.06,-0.311l0,-0.031l0.063,-0.31l0,0l0.063,-0.341l0,0l0.061,-0.311l0,0l0.063,-0.34l0,0l0.063,-0.311l0,0l0.091,-0.31l0,-0.03l0.063,-0.311l0,0l0.091,-0.31l0,0l0.096,-0.311l0,-0.03l0.091,-0.279l0,-0.031l0.095,-0.309l0,0l0.091,-0.311l0,0l0.126,-0.311l0,0l0.073,-0.278l0,0zm-24.015,155.193c-2.79,4.709 3.997,8.149 6.353,4.245c1.551,-2.263 2.85,-4.711 3.997,-7.19c2.015,-5.082 -5.236,-7.406 -6.942,-3.16c-0.99,2.138 -2.047,4.152 -3.408,6.105zm-21.847,16.548c-5.208,2.106 -1.737,8.893 2.387,7.251c2.572,-0.807 5.204,-1.983 7.591,-3.223c4.741,-2.82 0.309,-9.049 -3.563,-6.725c-1.986,1.054 -4.277,2.045 -6.415,2.697zm-54.759,-44.501c0.372,-1.92 -1.393,-3.78 -3.036,-4.121c-2.541,-0.402 -4.092,1.146 -4.555,3.347c-0.218,2.852 -0.34,5.362 -0.186,8.243c0,4.432 7.591,5.113 7.591,-0.465c-0.154,-2.387 0.001,-4.649 0.186,-7.004zm11.684,-24.76c1.456,-1.426 1.456,-3.873 0.031,-5.299c-1.551,-1.549 -3.934,-1.549 -5.454,-0.031c-1.951,2.016 -3.657,4.091 -5.268,6.385c-2.667,4.462 3.316,8.273 6.257,4.307c1.272,-1.86 2.854,-3.72 4.434,-5.362zm74.064,-14.658c-11.252,-11.279 -26.838,-18.221 -44.006,-18.221c-17.196,0 -32.754,6.973 -44.002,18.221c-11.251,11.25 -18.222,26.837 -18.222,44.006c0,17.167 6.97,32.723 18.222,44.003c11.248,11.249 26.806,18.222 44.002,18.222c17.168,0 32.726,-6.973 44.006,-18.222c11.248,-11.249 18.221,-26.836 18.221,-44.003c0,-17.169 -6.973,-32.756 -18.221,-44.006zm-10.879,195.694c2.046,0.403 3.38,2.417 2.977,4.462c-0.404,2.047 -2.419,3.379 -4.461,2.976l-106.542,-21.63c-2.074,-0.402 -3.408,-2.417 -2.972,-4.462c0.4,-2.046 2.383,-3.378 4.46,-2.976l106.538,21.63zm0,24.048c2.046,0.434 3.38,2.418 2.977,4.463c-0.404,2.075 -2.419,3.408 -4.461,2.974l-106.542,-21.599c-2.074,-0.434 -3.408,-2.418 -2.972,-4.463c0.4,-2.075 2.383,-3.408 4.46,-2.974l106.538,21.599zm106.85,62.535c2.109,0 3.811,1.705 3.811,3.812c0,2.107 -1.701,3.813 -3.811,3.813l-210.938,0c-2.109,0 -3.812,-1.705 -3.812,-3.813c0,-2.106 1.702,-3.812 3.812,-3.812l210.938,0zm-123.52,-15.742c2.105,0 3.812,1.704 3.812,3.812s-1.706,3.812 -3.812,3.812l-145.989,0c-2.078,0 -3.811,-1.704 -3.811,-3.812s1.733,-3.812 3.811,-3.812l145.989,0zm-160.925,0c2.106,0 3.812,1.704 3.812,3.812s-1.706,3.812 -3.812,3.812l-18.253,0c-2.105,0 -3.811,-1.704 -3.811,-3.812s1.706,-3.812 3.811,-3.812l18.253,0zm292.752,0.496c2.105,0 3.812,1.704 3.812,3.812c0,2.075 -1.706,3.812 -3.812,3.812l-69.168,0c-2.106,0 -3.813,-1.736 -3.813,-3.812c0,-2.107 1.706,-3.812 3.813,-3.812l69.168,0zm-1.365,-392.938l-47.381,0l-0.092,0l-1.705,0l-10.041,25.163l-0.031,0l0,0.062l0,0l-0.032,0.093l0,0l-0.028,0.063l0,0l-0.031,0.062l0,0l0,0.093l-0.031,0l0,0.062l-0.032,0l0,0.063l-0.031,0l-0.032,0.063l0,0l-0.027,0.062l0,0.03l-0.031,0.063l0,0l-0.032,0.063l0,0l-0.031,0.062l0,0l-0.032,0.063l0,0l-0.059,0.062l0,0l-0.032,0.063l0,0l-0.032,0.063l0,0l-0.063,0.061l0,0l-0.031,0.063l0,0l-0.061,0.063l0,0l-0.031,0.061l0,0l-0.063,0.063l0,0l-0.032,0.063l0,0l-0.06,0.031l0,0.03l-0.063,0.032l0,0l-0.032,0.061l0,0l-0.06,0.063l0,0l-0.063,0.031l0,0.031l-0.063,0.031l0,0l-0.031,0.062l-0.027,0l-0.032,0.03l0,0l-0.063,0.063l0,0l-0.059,0.031l0,0l-0.064,0.062l0,0l-0.063,0.031l0,0l-0.06,0.03l0,0.031l-0.063,0.031l0,0l-0.063,0.031l0,0l-0.061,0.03l0,0.032l-0.063,0.03l0,0l-0.063,0.03l-0.031,0l-0.06,0.032l0,0l-0.063,0.03l0,0l-0.063,0.031l0,0l-0.06,0.031l0,0l-0.095,0.031l0,0l-0.06,0.03l0,0l-0.063,0.032l0,0l-0.063,0.029l-0.031,0l-0.061,0.031l0,0l-0.063,0l0,0l-0.092,0.031l0,0l-0.063,0.031l0,0l-0.096,0l0,0l-0.059,0.031l0,0l-0.064,0l-0.031,0l-0.06,0.03l0,0l-0.063,0l-0.031,0l-0.06,0l0,0.031l-0.063,0l-0.032,0l-0.063,0l0,0l-0.092,0l0,0l-0.063,0l0,0l-0.091,0l-0.095,0.03l-0.218,0l-0.246,0l0,0l-0.249,0l0,0l-0.245,0l0,0l-0.25,0.031l0,0l-0.248,0l0,0l-0.219,0.031l-0.027,0l-0.218,0.031l0,0l-0.249,0l0,0.031l-0.246,0l0,0l-0.217,0.031l0,0l-0.25,0.03l0,0.03l-0.249,0.032l0,0l-0.214,0.03l0,0l-0.249,0.031l0,0.031l-0.218,0.031l0,0l-0.246,0.03l0,0.032l-0.217,0.03l0,0l-0.25,0.062l0,0l-0.217,0.063l0,0l-0.218,0.063l0,0l-0.246,0.061l0,0l-0.218,0.063l0,0l-0.217,0.063l0,0l-0.218,0.061l0,0l-0.214,0.094l0,0l-0.25,0.063l0,0l-0.217,0.093l0,0l-0.218,0.062l0,0l-0.214,0.094l0,0l-0.218,0.092l0,0l-0.218,0.094l0,0l-0.186,0.092l-0.032,0l-0.187,0.094l0,0l-0.217,0.093l0,0l-0.218,0.093l0,0l-0.214,0.094l0,0.031l-0.186,0.093l0,0l-0.219,0.093l0,0l-0.186,0.124l0,0l-0.217,0.093l0,0l-0.187,0.124l0,0l-0.218,0.124l0,0l-0.186,0.125l0,0l-0.187,0.092l0,0l-0.214,0.124l0,0l-0.186,0.124l-0.187,0.123l0,0.032l-0.187,0.124l0,0l-0.186,0.123l0,0l-0.186,0.125l0,0l-0.187,0.154l0,0l-0.187,0.123l-0.186,0.156l0,0l-0.186,0.123l-0.154,0.156l0,0l-0.187,0.154l0,0l-0.187,0.124l0,0l-0.157,0.154l-0.187,0.155l-0.154,0.155l-0.154,0.155l-0.186,0.154l-0.154,0.187l-0.154,0.154l-0.143,0.151l0,0l-0.155,0.154l0,0l-0.157,0.186l-0.154,0.156l0,0l-0.155,0.186l0,0l-0.154,0.155l0,0l-0.154,0.185l-0.123,0.187l0,0l-0.157,0.155l-0.123,0.186l0,0l-0.154,0.187l-0.123,0.187l-0.127,0.186l0,0l-0.154,0.186l-0.123,0.186l0,0l-0.126,0.186l0,0.032l-0.122,0.187l-0.123,0.186l-0.123,0.186l0,0l-0.127,0.217l0,0l-0.091,0.186l0,0l-0.126,0.187l-0.123,0.217l-0.092,0.217l-0.313,0.589l0,0.031l-0.091,0.186l-0.126,0.217l0,0l-0.187,0.434l0,0l-0.06,0.217l0,0l-0.095,0.218l0,0l-0.091,0.217l-0.096,0.217l0,0l-0.213,0.651l0,0l-0.127,0.434l0,0.031l-0.092,0.217l0,0l-0.063,0.217l0,0l-0.092,0.465l0,0l-0.126,0.465l0,0l-0.031,0.217l0,0l-0.06,0.247l-0.031,0.218l-0.064,0.248l0,0l-0.031,0.216l-0.027,0.249l0,0l-0.032,0.248l0,0l-0.031,0.217l0,0l-0.032,0.247l0,0.249l0,0l-0.031,0.246l-0.031,0.249l0,0.217l0,0.248l-0.028,0.247l0,0.248l0,0.248l0,0.248l0,0l0,0.248l0,0l0.028,0.217l0,0.031l0,0.217l0,0.031l0,0.217l0,0.031l0.031,0.186l0,0.031l0,0.217l0.031,0.031l0,0.217l0,0.031l0.032,0.186l0,0.063l0.031,0.186l0,0.03l0.032,0.187l0,0.063l0.027,0.186l0,0.063l0.031,0.154l0,0.063l0.032,0.186l0.032,0.062l0.031,0.155l0,0.063l0.031,0.186l0.028,0.062l0.031,0.155l0,0.062l0.032,0.155l0.031,0.094l0.031,0.154l0.031,0.062l0.029,0.155l0,0.094l0.063,0.123l0,0.094l0.063,0.123l0,0.094l0.061,0.124l0.031,0.092l0.031,0.155l0.032,0.094l0.031,0.123l0.032,0.094l0.027,0.124l0.031,0.093l0.063,0.124l0.032,0.093l0.031,0.124l0.027,0.093l0.064,0.123l0.031,0.094l0.031,0.093l0.06,0.124l0.032,0.093l0.031,0.124l0.063,0.094l0.028,0.123l0.063,0.094l0.123,0.34l0.031,0.063l0.218,0.435l0.063,0.124l0.031,0.061l0.092,0.219l0.094,0.123l0.028,0.063l0.063,0.154l0.031,0.063l0.092,0.123l0.031,0.063l0.186,0.341l0.032,0.062l0.095,0.156l0.027,0.03l0.096,0.154l0,0.032l0.123,0.154l0,0.031l0.122,0.154l0,0.031l0.126,0.187l0,0l0.123,0.185l0,0l0.123,0.187l0.031,0l0.096,0.187l0.031,0l0.123,0.186l0,0l0.154,0.186l0.123,0.156l0,0l0.126,0.186l0,0l0.154,0.186l0,0l0.432,0.496l0,0.031l0.313,0.309l0,0.032l0.309,0.278l0.187,0.186c1.302,1.303 2.758,2.418 4.4,3.285l0,0c0.404,0.217 0.804,0.434 1.238,0.62l0,0l0.622,0.278l0,0l0.432,0.155l0,0.03l0.218,0.063l0,0l0.681,0.217l0,0.031l0.435,0.124l0,0c0.464,0.124 0.898,0.247 1.365,0.341l0,0l0.246,0.063l0,0l0.218,0.03l0,0l0.249,0.062l0,0l0.214,0.031l0,0l0.249,0.031l0,0l0.25,0.031l0,0.031l0.217,0l0,0.031l0.246,0l0,0l0.249,0.03l0,0l0.218,0.03l0.027,0l0.219,0.032l0,0l0.248,0l0,0l0.495,0.03l0,0l0.249,0l0,0l0.246,0l0.218,0l0.095,0.031l0.06,0l0,0l0.063,0l0,0l0.094,0l0,0l0.061,0l0,0l0.063,0l0,0l0.063,0.031l0,0l0.06,0l0.031,0l0.063,0l0,0l0.06,0.031l0,0l0.063,0l0,0l0.063,0.03l0.027,0l0.063,0l0,0l0.063,0.03l0,0l0.06,0l0,0.032l0.063,0l0,0l0.063,0.03l0,0l0.061,0.031l0.031,0l0.031,0l0.031,0l0.063,0.031l0,0l0.06,0.031l0,0l0.063,0.03l0,0l0.063,0.031l0,0l0.059,0.03l0,0l0.064,0.031l0,0l0.063,0.031l0,0l0.06,0.031l0,0l0.063,0.031l0,0l0.063,0.031l0,0l0.061,0.03l0,0l0.063,0.03l0,0l0.031,0.063l0.032,0l0.028,0.031l0,0l0.063,0.031l0,0l0.063,0.031l0,0.03l0.06,0.032l0,0l0.063,0.03l0,0l0.031,0.062l0,0l0.06,0.031l0,0l0.063,0.062l0,0l0.031,0.032l0.032,0l0.031,0.061l0,0l0.06,0.031l0,0.031l0.032,0.031l0,0l0.063,0.062l0,0l0.031,0.03l0,0l0.061,0.063l0,0l0.031,0.063l0,0l0.063,0.062l0,0l0.032,0.063l0,0l0.028,0.03l0.031,0l0.031,0.063l0,0l0.031,0.062l0,0l0.064,0.063l0,0l0.027,0.062l0,0l0.031,0.063l0,0l0.032,0.063l0,0l0.031,0.062l0,0l0.032,0.062l0,0l0.031,0.063l0,0.03l0.027,0.063l0,0l0.032,0.063l0.031,0l0,0.062l0.032,0l0,0.063l0,0l10.195,25.503l49.178,0l0,-93.918l0.012,0z"/>
 </g>
</svg>