<svg width="448.00000000000006" height="448.01297" xmlns="http://www.w3.org/2000/svg">

 <g>
  <title>background</title>
  <rect fill="none" id="canvas_background" height="402" width="582" y="-1" x="-1"/>
 </g>
 <g>
  <title>Layer 1</title>
  <path fill="#fed104" id="svg_1" d="m317.35938,382.48828l5.34375,-3.19922l31.38281,31.38281l56.60937,-56.60937l-31.38672,-31.38281l3.20313,-5.34375c8.76172,-14.78125 15.38672,-30.72266 19.6875,-47.35938l1.53516,-5.97656l44.27343,0l0,-80l-44.27343,0l-1.55079,-5.99219c-4.29687,-16.63672 -10.92578,-32.58203 -19.6875,-47.35937l-3.20312,-5.34375l31.38672,-31.38282l-56.59375,-56.60937l-31.38281,31.38281l-5.34375,-3.19922c-14.78125,-8.76562 -30.72266,-15.39062 -47.35938,-19.6875l-5.99219,-1.53515l0,-44.27344l-80,0l0,44.27344l-5.99218,1.55078c-16.63672,4.29687 -32.58204,10.92187 -47.35938,19.6875l-5.34766,3.19922l-31.38281,-31.39844l-56.60547,56.60937l31.38282,31.38282l-3.19922,5.34375c-8.76563,14.77734 -15.39453,30.72265 -19.6875,47.35937l-1.53907,5.99219l-44.26953,0l0,80l44.26953,0l1.55469,5.99219c4.29688,16.63672 10.92578,32.57812 19.6875,47.35937l3.19922,5.34375l-31.39844,31.38281l56.60547,56.60938l31.38281,-31.38281l5.34766,3.19922c11.78125,6.95312 24.30859,12.55468 37.35156,16.69531l0,-31.19922l16,0l0,-8.23047c0.02344,-3.32031 -2.04297,-6.29297 -5.16015,-7.42578c-54.39844,-19.23438 -90.78907,-70.64453 -90.83985,-128.34375c0,-37.17969 15.22266,-72.73828 42.1211,-98.40234c26.90234,-25.66407 63.14062,-39.19532 100.27734,-37.44532c69.96875,3.67578 125.84766,59.625 129.44141,129.60157c2.98437,59.97656 -33.89063,114.7539 -90.58594,134.55859c-3.15234,1.12109 -5.25781,4.10937 -5.25391,7.45703l0,8.23047l16,0l0,31.19922c13.03907,-4.14453 25.57032,-9.75 37.35157,-16.71094zm98.64843,-166.48828l16,0l0,16l-16,0l0,-16zm-384,16l-16,0l0,-16l16,0l0,16zm61.88672,133.42578l-11.3125,11.3086l-11.3125,-11.3086l11.3125,-11.3125l11.3125,11.3125zm-11.3125,-271.53906l-11.3125,-11.3125l11.3125,-11.3086l11.3125,11.3086l-11.3125,11.3125zm149.42578,-61.88672l-16,0l0,-16l16,0l0,16zm122.10938,50.57422l11.3125,-11.3086l11.3125,11.3086l-11.3125,11.3125l-11.3125,-11.3125zm11.3125,271.53906l11.3125,11.3125l-11.3125,11.3086l-11.3125,-11.3086l11.3125,-11.3125zm0,0"/>
  <path fill="#fed104" id="svg_2" d="m264.00781,384l-80,0l0,32l80,0l0,-32zm-56,24l-16,0l0,-16l16,0l0,16zm24,0l-16,0l0,-16l16,0l0,16zm24,0l-16,0l0,-16l16,0l0,16zm0,0"/>
  <path fill="#fed104" id="svg_3" d="m280.00781,216l0,-8l-8,0c-22.08203,0.02734 -39.97656,17.91797 -40,40l0,8l8,0c22.07813,-0.02734 39.97266,-17.91797 40,-40zm0,0"/>
  <path fill="#fed104" id="svg_4" d="m201.375,432c3.38672,9.59766 12.45703,16.01172 22.63281,16.01172c10.17578,0 19.2461,-6.41406 22.62891,-16.01172l-45.26172,0zm0,0"/>
  <path fill="#fed104" id="svg_5" d="m176.00781,208l-8,0l0,8c0.02344,22.08203 17.91797,39.97266 40,40l8,0l0,-8c-0.02734,-22.08203 -17.92187,-39.97266 -40,-40zm0,0"/>
  <path fill="#fed104" id="svg_6" d="m343.87891,218.49609c-3.13672,-61.75781 -52.44141,-111.15234 -114.19141,-114.39843c-32.78125,-1.55469 -64.76953,10.38672 -88.51563,33.03906c-23.74609,22.65234 -37.17578,54.04687 -37.16406,86.86328c0.05078,50.91406 32.15625,96.28125 80.16016,113.25781c9.51172,3.39063 15.85547,12.41016 15.83984,22.51172l0,8.23047l16,0l0,-96l-8,0c-30.91406,-0.03516 -55.96484,-25.08594 -56,-56l0,-24l24,0c19.6875,0.03125 37.91016,10.39844 48,27.30469c10.08594,-16.90625 28.3125,-27.27344 48,-27.30469l24,0l0,24c-0.03515,30.91406 -25.08984,55.96484 -56,56l-8,0l0,96l16,0l0,-8.23047c0.00781,-10.1289 6.38281,-19.15625 15.92578,-22.54687c50.02735,-17.46875 82.57422,-65.80078 79.94532,-118.72657zm0,0"/>
 </g>
</svg>