<svg height="448pt" viewBox="0 0 448 448.01297" width="448pt" xmlns="http://www.w3.org/2000/svg"><path d="m317.359375 382.488281 5.34375-3.199219 31.382813 31.382813 56.609374-56.609375-31.386718-31.382812 3.203125-5.34375c8.761719-14.78125 15.386719-30.722657 19.6875-47.359376l1.535156-5.976562h44.273437v-80h-44.273437l-1.550781-5.992188c-4.296875-16.636718-10.925782-32.582031-19.6875-47.359374l-3.203125-5.34375 31.386719-31.382813-56.59375-56.609375-31.382813 31.382812-5.34375-3.199218c-14.78125-8.765625-30.722656-15.390625-47.359375-19.6875l-5.992188-1.535156v-44.273438h-80v44.273438l-5.992187 1.550781c-16.636719 4.296875-32.582031 10.921875-47.359375 19.6875l-5.347656 3.199219-31.382813-31.398438-56.605469 56.609375 31.382813 31.382813-3.199219 5.34375c-8.765625 14.777343-15.394531 30.722656-19.6875 47.359374l-1.539062 5.992188h-44.2695315v80h44.2695315l1.554687 5.992188c4.296875 16.636718 10.925781 32.578124 19.6875 47.359374l3.199219 5.34375-31.398438 31.382813 56.605469 56.609375 31.382813-31.382812 5.347656 3.199218c11.78125 6.953125 24.308594 12.554688 37.351562 16.695313v-31.199219h16v-8.230469c.023438-3.320312-2.042968-6.292969-5.160156-7.425781-54.398437-19.234375-90.789062-70.644531-90.839844-128.34375 0-37.179688 15.222657-72.738281 42.121094-98.402344 26.902344-25.664062 63.140625-39.195312 100.277344-37.445312 69.96875 3.675781 125.847656 59.625 129.441406 129.601562 2.984375 59.976563-33.890625 114.753906-90.585937 134.558594-3.152344 1.121094-5.257813 4.109375-5.253907 7.457031v8.230469h16v31.199219c13.039063-4.144531 25.570313-9.75 37.351563-16.710938zm98.648437-166.488281h16v16h-16zm-384 16h-16v-16h16zm61.886719 133.425781-11.3125 11.308594-11.3125-11.308594 11.3125-11.3125zm-11.3125-271.539062-11.3125-11.3125 11.3125-11.308594 11.3125 11.308594zm149.425781-61.886719h-16v-16h16zm122.109376 50.574219 11.3125-11.308594 11.3125 11.308594-11.3125 11.3125zm11.3125 271.539062 11.3125 11.3125-11.3125 11.308594-11.3125-11.308594zm0 0"/><path d="m264.007812 384h-80v32h80zm-56 24h-16v-16h16zm24 0h-16v-16h16zm24 0h-16v-16h16zm0 0"/><path d="m280.007812 216v-8h-8c-22.082031.027344-39.976562 17.917969-40 40v8h8c22.078126-.027344 39.972657-17.917969 40-40zm0 0"/><path d="m201.375 432c3.386719 9.597656 12.457031 16.011719 22.632812 16.011719 10.175782 0 19.246094-6.414063 22.628907-16.011719zm0 0"/><path d="m176.007812 208h-8v8c.023438 22.082031 17.917969 39.972656 40 40h8v-8c-.027343-22.082031-17.921874-39.972656-40-40zm0 0"/><path d="m343.878906 218.496094c-3.136718-61.757813-52.441406-111.152344-114.191406-114.398438-32.78125-1.554687-64.769531 10.386719-88.515625 33.039063-23.746094 22.652343-37.175781 54.046875-37.164063 86.863281.050782 50.914062 32.15625 96.28125 80.160157 113.257812 9.511719 3.390626 15.855469 12.410157 15.839843 22.511719v8.230469h16v-96h-8c-30.914062-.035156-55.964843-25.085938-56-56v-24h24c19.6875.03125 37.910157 10.398438 48 27.304688 10.085938-16.90625 28.3125-27.273438 48-27.304688h24v24c-.035156 30.914062-25.089843 55.964844-56 56h-8v96h16v-8.230469c.007813-10.128906 6.382813-19.15625 15.925782-22.546875 50.027344-17.46875 82.574218-65.800781 79.945312-118.726562zm0 0"/></svg>